<?xml version="1.0"?>
<svg version="1.1" xmlns="http://www.w3.org/2000/svg" width="400" height="200" style="border: dashed 2px #aaa"><path fill="#7e5094" d="M51.8,134.96l4,7.04c-2,1.76-8.24,6.8-17.2,6.8c-13.2,0-20.8-8.16-20.8-21.76c0-14.24,8-23.04,22-23.04c6.88,0,14,2.8,14,2.8l-0.4,13.12l-7.2,0l-1.12-5.68s-2.32-0.64-5.52-0.64c-5.76,0-9.36,3.84-9.36,11.84c0,8.72,3.36,13.76,10,13.76c5.6,0,9.12-2.8,11.6-4.24z M92.6408,148l-1.44-5.2s-6.16,6-12.96,6c-7.76,0-12.48-4.56-12.48-12.56c0-9.44,7.12-13.2,19.28-13.2l5.6,0l0-4.4c0-4.08-2.16-5.84-6.16-5.84c-4.08,0-7.04,1.2-7.04,1.2l-1.2,5.04l-7.2,0l-0.56-11.84s9.68-3.2,17.36-3.2c12.16,0,16.8,4.24,16.8,15.84l0,19.76l6,1.44l0,6.4z M90.6408,129.84l-4.56,0c-6.24,0-8.72,1.6-8.72,5.2c0,3.04,1.68,4.8,4.72,4.8c4.24,0,8.56-4.64,8.56-4.64l0-5.36z M136.2816,139.6l7.2,2l0,6.4l-25.68,0l0-6.4l6.4-2l0-44.96l-6.4-1.6l0-6.4l18.48-0.64l0,53.6z M157.2024,91.6c0-4.56,3.28-7.2,6.88-7.2c4.16,0,6.72,2.16,6.72,7.2c0,4.72-3.44,7.28-6.72,7.28c-4.32,0-6.88-2.56-6.88-7.28z M170.6424,139.6l5.6,2l0,6.4l-24,0l0-6.4l6.4-2l0-26l-6.4-2l0-6.4l18.4-0.4l0,34.8z M185.8032,105.2l17.04-0.4l0.72,4.48s5.44-5.28,11.84-5.28c11.12,0,16.64,8.24,16.64,21.2c0,14.8-7.04,23.6-21.04,23.6c-2.32,0-4.72-0.32-6.8-0.8l0,10.16l7.6,1.84l0,6.4l-25.84,0l0-6.4l6.24-1.84l0-44.56l-6.4-2l0-6.4z M204.2032,118l0,20.4c1.28,0.56,3.2,1.2,6.24,1.2c6.88,0,9.2-4.8,9.2-12.96c0-8.08-2.16-13.04-8-13.04c-5.2,0-7.44,4.4-7.44,4.4z M282.644,129.04l-26.56,0c0.48,6.4,4.16,10.16,9.68,10.16c6.64,0,13.44-3.76,13.44-3.76l3.44,6.64s-8,6.72-18.24,6.72c-13.76,0-20.8-8-20.8-21.6c0-14,7.92-23.2,21.36-23.2c11.92,0,18.16,7.36,18.16,18.8c0,3.04-0.48,6-0.48,6.24z M256.244,121.6l14.48,0c0-4.56-1.92-8-6.56-8c-4.48,0-7.28,3.28-7.92,8z M311.0848,104.8l0.72,5.52s5.76-6.32,11.12-6.32c4.4,0,7.44,1.44,7.44,1.44l-0.64,15.36l-7.2,0l-1.2-6.8c-4.64,0-8.64,4.48-8.64,4.48l0,21.12l8,2l0,6.4l-26.4,0l0-6.4l6.4-2l0-26l-6.4-2l0-6.4z"/><path fill="#" d=""/></svg>
